<?xml version="1.0" encoding="UTF-8" standalone="no"?>
<!-- Generator: Gravit.io -->
<svg xmlns="http://www.w3.org/2000/svg" xmlns:xlink="http://www.w3.org/1999/xlink" style="isolation:isolate" viewBox="364.578 721.085 50 33" width="50pt" height="33pt"><path d=" M 384.578 721.085 C 378.118 721.085 372.945 726.195 372.672 732.585 C 367.996 733.862 364.578 738.081 364.578 743.085 C 364.578 749.132 369.531 754.085 375.578 754.085 L 405.578 754.085 C 410.523 754.085 414.578 750.03 414.578 745.085 C 414.578 741.187 411.98 737.878 408.484 736.71 C 408.274 730.847 403.488 726.085 397.578 726.085 C 396.538 726.085 395.57 726.343 394.609 726.616 C 392.461 723.346 388.798 721.085 384.578 721.085 Z  M 384.578 723.085 C 388.305 723.085 391.57 725.179 393.297 728.179 L 393.734 728.898 L 394.516 728.616 C 395.496 728.257 396.534 728.077 397.578 728.085 C 402.531 728.085 406.578 732.132 406.578 737.085 L 406.578 738.179 L 407.359 738.366 C 410.293 739.058 412.578 741.855 412.578 745.085 C 412.578 748.94 409.433 752.085 405.578 752.085 L 375.578 752.085 C 370.625 752.085 366.578 748.038 366.578 743.085 C 366.578 738.757 369.637 735.081 373.766 734.272 L 374.578 734.116 L 374.578 733.085 C 374.578 727.519 379.012 723.085 384.578 723.085 Z  M 389.578 731.679 L 388.859 732.366 L 382.859 738.366 L 384.297 739.804 L 388.578 735.522 L 388.578 747.085 L 390.578 747.085 L 390.578 735.522 L 394.859 739.804 L 396.297 738.366 L 390.297 732.366 L 389.578 731.679 Z " fill="rgb(46,46,46)"/></svg>