<?xml version="1.0" encoding="UTF-8" standalone="no"?>
<!-- Generator: Gravit.io -->
<svg xmlns="http://www.w3.org/2000/svg" xmlns:xlink="http://www.w3.org/1999/xlink" style="isolation:isolate" viewBox="439 714.5 43 42.75" width="43pt" height="42.75pt"><g><g><g><path d=" M 459.161 727.162 L 454.996 731.309 C 453.461 732.837 451.917 734.365 450.392 735.911 C 450.032 736.278 449.76 736.767 449.655 737.247 C 449.102 739.77 448.567 742.293 448.033 744.817 L 447.734 746.214 C 447.594 746.895 447.778 747.576 448.243 748.039 C 448.603 748.397 449.102 748.597 449.629 748.597 C 449.778 748.597 449.927 748.58 450.076 748.554 L 451.619 748.231 C 454.075 747.715 456.539 747.192 458.994 746.685 C 459.564 746.563 460.047 746.31 460.459 745.899 C 467.352 739.028 474.244 732.165 481.137 725.311 C 481.646 724.805 481.927 724.202 481.997 723.46 C 482.005 723.338 481.997 723.216 481.97 723.102 C 481.927 722.927 481.891 722.744 481.848 722.57 C 481.751 722.124 481.646 721.618 481.435 721.129 L 481.435 721.129 C 480.146 718.195 478.007 716.1 475.078 714.921 C 474.49 714.685 473.867 714.607 473.324 714.537 L 473.175 714.519 C 472.385 714.423 471.666 714.685 471.044 715.314 C 467.097 719.26 463.125 723.216 459.161 727.162 Z  M 472.885 716.624 C 472.903 716.624 472.912 716.624 472.929 716.624 L 473.078 716.641 C 473.534 716.693 473.955 716.746 474.288 716.885 C 476.674 717.846 478.428 719.557 479.489 721.967 C 479.611 722.246 479.69 722.604 479.769 722.98 C 479.796 723.12 479.831 723.259 479.857 723.399 C 479.822 723.556 479.76 723.661 479.638 723.774 C 472.736 730.628 465.843 737.5 458.951 744.363 C 458.837 744.476 458.731 744.529 458.573 744.564 C 456.109 745.079 453.654 745.594 451.19 746.109 L 449.892 746.38 L 450.137 745.236 C 450.672 742.721 451.207 740.198 451.751 737.683 C 451.768 737.605 451.839 737.482 451.917 737.395 C 453.443 735.858 454.969 734.33 456.504 732.811 L 460.669 728.664 C 464.642 724.709 468.615 720.753 472.578 716.789 C 472.745 716.65 472.824 716.624 472.885 716.624 Z " fill="rgb(46,46,46)"/><path d=" M 442.411 724.019 L 457.723 724.019 C 458.319 724.019 458.801 723.539 458.801 722.945 C 458.801 722.351 458.319 721.871 457.723 721.871 L 442.411 721.871 C 440.526 721.871 439 723.399 439 725.267 L 439 753.854 C 439 755.731 440.535 757.25 442.411 757.25 L 471.114 757.25 C 472.999 757.25 474.525 755.722 474.525 753.854 L 474.525 739.229 C 474.525 738.635 474.043 738.155 473.446 738.155 C 472.85 738.155 472.368 738.635 472.368 739.229 L 472.368 753.854 C 472.368 754.543 471.798 755.111 471.105 755.111 L 442.411 755.111 C 441.719 755.111 441.149 754.543 441.149 753.854 L 441.149 725.276 C 441.149 724.586 441.719 724.019 442.411 724.019 Z " fill="rgb(46,46,46)"/></g></g></g></svg>